<svg xmlns="http://www.w3.org/2000/svg" version="1.1" xmlns:xlink="http://www.w3.org/1999/xlink" xmlns:svgjs="http://svgjs.dev/svgjs" width="1440" height="560" preserveAspectRatio="none" viewBox="0 0 1440 560"><g mask="url(&quot;#SvgjsMask1000&quot;)" fill="none"><rect width="1440" height="560" x="0" y="0" fill="#0e2a47"></rect><path d="M0 142.86L10 93.98L20 59.31L30 65.66L40 118.55L50 149.84L60 204.6L70 172.41L80 227.83L90 209.83L100 264.26L110 278.57L120 343.64L130 389.77L140 412.63L150 443.59L160 417.12L170 397.97L180 407.14L190 378.58L200 327.19L210 283.43L220 309.58L230 287.57L240 351L250 411.95L260 403.71L270 376.9L280 446.37L290 431.69L300 491.71L310 536.34L320 517.37L330 483.94L340 493.82L350 484.76L360 453.54L370 431.25L380 462.27L390 489.86L400 469.1L410 433.65L420 462.48L430 445.62L440 426.32L450 495.83L460 524.61L470 515.46L480 503.45L490 506.21L500 556.08L510 530.88L520 557.6L530 546.71L540 540.5L550 530.92L560 470.74L570 511.32L580 502.54L590 459.23L600 513.29L610 536.14L620 558.39L630 520.88L640 541.29L650 536.41L660 514.83L670 552.35L680 554.81L690 525.3L700 535.68L710 544.31L720 491.98L730 488.68L740 460.05L750 460.52L760 404.58L770 335.85L780 396.06L790 429.94L800 479.07L810 499.49L820 503.31L830 559.73L840 551.8L850 507.08L860 523.63L870 498.46L880 501.97L890 491.58L900 494.89L910 434.13L920 395.66L930 446.3L940 384.41L950 382.6L960 430.45L970 392.53L980 402.94L990 443.03L1000 506.76L1010 482.22L1020 546.93L1030 488.85L1040 514.04L1050 503.15L1060 539.97L1070 470.04L1080 521.42L1090 451.45L1100 440.76L1110 470.72L1120 482.02L1130 440.17L1140 404.12L1150 427.4L1160 399.01L1170 375.98L1180 428.55L1190 380.67L1200 357.11L1210 334.82L1220 378.11L1230 383.11L1240 331.75L1250 361.15L1260 421.29L1270 423.47L1280 466.77L1290 522.58L1300 459.15L1310 420.54L1320 452.47L1330 401.89L1340 450.3L1350 516.83L1360 539.6L1370 548.36L1380 540.95L1390 485.79L1400 535.79L1410 498L1420 518.95L1430 472.84L1440 443.42" stroke="#224b75" stroke-width="2"></path><path d="M0 142.86L10 93.98L20 59.31L30 65.66L40 118.55L50 149.84L60 204.6L70 172.41L80 227.83L90 209.83L100 264.26L110 278.57L120 343.64L130 389.77L140 412.63L150 443.59L160 417.12L170 397.97L180 407.14L190 378.58L200 327.19L210 283.43L220 309.58L230 287.57L240 351L250 411.95L260 403.71L270 376.9L280 446.37L290 431.69L300 491.71L310 536.34L320 517.37L330 483.94L340 493.82L350 484.76L360 453.54L370 431.25L380 462.27L390 489.86L400 469.1L410 433.65L420 462.48L430 445.62L440 426.32L450 495.83L460 524.61L470 515.46L480 503.45L490 506.21L500 556.08L510 530.88L520 557.6L530 546.71L540 540.5L550 530.92L560 470.74L570 511.32L580 502.54L590 459.23L600 513.29L610 536.14L620 558.39L630 520.88L640 541.29L650 536.41L660 514.83L670 552.35L680 554.81L690 525.3L700 535.68L710 544.31L720 491.98L730 488.68L740 460.05L750 460.52L760 404.58L770 335.85L780 396.06L790 429.94L800 479.07L810 499.49L820 503.31L830 559.73L840 551.8L850 507.08L860 523.63L870 498.46L880 501.97L890 491.58L900 494.89L910 434.13L920 395.66L930 446.3L940 384.41L950 382.6L960 430.45L970 392.53L980 402.94L990 443.03L1000 506.76L1010 482.22L1020 546.93L1030 488.85L1040 514.04L1050 503.15L1060 539.97L1070 470.04L1080 521.42L1090 451.45L1100 440.76L1110 470.72L1120 482.02L1130 440.17L1140 404.12L1150 427.4L1160 399.01L1170 375.98L1180 428.55L1190 380.67L1200 357.11L1210 334.82L1220 378.11L1230 383.11L1240 331.75L1250 361.15L1260 421.29L1270 423.47L1280 466.77L1290 522.58L1300 459.15L1310 420.54L1320 452.47L1330 401.89L1340 450.3L1350 516.83L1360 539.6L1370 548.36L1380 540.95L1390 485.79L1400 535.79L1410 498L1420 518.95L1430 472.84L1440 443.42L1440 560L0 560z" fill="url(&quot;#SvgjsLinearGradient1001&quot;)"></path></g><defs><mask id="SvgjsMask1000"><rect width="1440" height="560" fill="#ffffff"></rect></mask><linearGradient x1="50%" y1="0%" x2="50%" y2="100%" id="SvgjsLinearGradient1001"><stop stop-opacity="0.65" stop-color="#224b75" offset="0"></stop><stop stop-opacity="0" stop-color="#508dcc" offset="0.8"></stop></linearGradient></defs></svg>