<svg xmlns="http://www.w3.org/2000/svg" version="1.1" xmlns:xlink="http://www.w3.org/1999/xlink" xmlns:svgjs="http://svgjs.com/svgjs" width="1440" height="70" preserveAspectRatio="none" viewBox="0 0 1440 70"><g mask="url(&quot;#SvgjsMask1062&quot;)" fill="none"><rect width="1440" height="70" x="0" y="0" fill="rgba(250, 237, 253, 1)"></rect><path d="M120.24 30.16 a23.3 23.3 0 1 0 46.6 0 a23.3 23.3 0 1 0 -46.6 0z" fill="rgba(102, 28, 142, 0.4)" class="triangle-float1"></path><path d="M1320.788531647886 6.684060322103887L1333.7329677070704 13.859278395661377 1340.9081857806277 0.9148423364770188 1327.9637497214435-6.260375737080471z" fill="rgba(102, 28, 142, 0.4)" class="triangle-float1"></path><path d="M120.512,32.439C122.387,32.423,124.029,31.404,125.073,29.846C126.274,28.053,127.297,25.786,126.222,23.915C125.145,22.039,122.675,21.879,120.512,21.902C118.403,21.924,116.071,22.213,115.005,24.033C113.931,25.866,114.646,28.148,115.81,29.926C116.853,31.519,118.608,32.456,120.512,32.439" fill="rgba(102, 28, 142, 0.4)" class="triangle-float2"></path><path d="M1338.4111174483483 61.99245168888524L1331.1557930073288 47.11683211555911 1323.5354978750222 69.24777612990458z" fill="rgba(102, 28, 142, 0.4)" class="triangle-float1"></path><path d="M221.07 64.43 a22.8 22.8 0 1 0 45.6 0 a22.8 22.8 0 1 0 -45.6 0z" fill="rgba(102, 28, 142, 0.4)" class="triangle-float1"></path><path d="M1412.1296539313478 30.56242880987667L1417.9531914769566 23.370958853829222 1404.254217770081 18.231387513439714z" fill="rgba(102, 28, 142, 0.4)" class="triangle-float1"></path><path d="M316.62 2.25 a18.48 18.48 0 1 0 36.96 0 a18.48 18.48 0 1 0 -36.96 0z" fill="rgba(102, 28, 142, 0.4)" class="triangle-float2"></path><path d="M493.41,71.385C500.69,71.479,507.54,67.463,510.971,61.041C514.229,54.943,512.916,47.618,509.231,41.768C505.802,36.324,499.833,33.546,493.41,33.165C486.097,32.731,477.789,33.428,473.964,39.676C470.03,46.102,472.675,54.177,476.614,60.6C480.342,66.679,486.28,71.293,493.41,71.385" fill="rgba(102, 28, 142, 0.4)" class="triangle-float3"></path><path d="M621.589,53.505C625.994,53.455,630.811,53.266,633.293,49.627C636.044,45.593,636.093,40.133,633.555,35.961C631.104,31.932,626.297,30.11,621.589,30.389C617.341,30.641,614.105,33.638,611.853,37.248C609.418,41.152,607.056,45.948,609.42,49.895C611.75,53.786,617.054,53.556,621.589,53.505" fill="rgba(102, 28, 142, 0.4)" class="triangle-float3"></path><path d="M204.48557090324383-4.317586135195169L193.96990972571052-6.552758918778585 195.87498113910206 10.3383192393131z" fill="rgba(102, 28, 142, 0.4)" class="triangle-float2"></path><path d="M725.3890644323642 4.953605805441255L720.8923827464922 21.735450322580043 737.674227263631 26.232132008452048 742.170908949503 9.450287491313256z" fill="rgba(102, 28, 142, 0.4)" class="triangle-float3"></path><path d="M1139.3962225968558 12.103982044543939L1119.1115758824358 8.507315431969896 1124.9745863214018 25.53473412474218z" fill="rgba(102, 28, 142, 0.4)" class="triangle-float3"></path><path d="M569.1926541574799 15.076031639610223L564.4712721299753-0.36691312791682407 553.7497093899528 19.797413667114725z" fill="rgba(102, 28, 142, 0.4)" class="triangle-float1"></path><path d="M477.0394415137619 61.58750224516723L494.5009088026385 68.99945536336314 501.9128619208344 51.537988074486556 484.45139463195784 44.12603495629065z" fill="rgba(102, 28, 142, 0.4)" class="triangle-float1"></path><path d="M648.101,78.836C654.695,79.307,661.573,76.847,664.938,71.157C668.354,65.382,667.375,58.046,663.728,52.413C660.382,47.245,654.257,45.036,648.101,45.149C642.165,45.258,636.299,47.768,633.438,52.97C630.663,58.015,632.133,64.006,634.973,69.015C637.861,74.11,642.259,78.418,648.101,78.836" fill="rgba(102, 28, 142, 0.4)" class="triangle-float1"></path><path d="M1089.38 32.75 a14.65 14.65 0 1 0 29.3 0 a14.65 14.65 0 1 0 -29.3 0z" fill="rgba(102, 28, 142, 0.4)" class="triangle-float2"></path></g><defs><mask id="SvgjsMask1062"><rect width="1440" height="70" fill="#ffffff"></rect></mask><style>
            @keyframes float1 {
                0%{transform: translate(0, 0)}
                50%{transform: translate(-10px, 0)}
                100%{transform: translate(0, 0)}
            }

            .triangle-float1 {
                animation: float1 5s infinite;
            }

            @keyframes float2 {
                0%{transform: translate(0, 0)}
                50%{transform: translate(-5px, -5px)}
                100%{transform: translate(0, 0)}
            }

            .triangle-float2 {
                animation: float2 4s infinite;
            }

            @keyframes float3 {
                0%{transform: translate(0, 0)}
                50%{transform: translate(0, -10px)}
                100%{transform: translate(0, 0)}
            }

            .triangle-float3 {
                animation: float3 6s infinite;
            }
        </style></defs></svg>